<?xml version="1.0" encoding="utf-8"?>
<!-- Generator: Adobe Illustrator 21.1.0, SVG Export Plug-In . SVG Version: 6.00 Build 0)  -->
<svg version="1.1" id="Layer_1" xmlns="http://www.w3.org/2000/svg" xmlns:xlink="http://www.w3.org/1999/xlink" x="0px" y="0px"
	 viewBox="0 0 360 122" style="enable-background:new 0 0 360 122;" xml:space="preserve">
<style type="text/css">
	.st0{fill:#FFFFFF;}
	.st1{fill:#FFA500;}
</style>
<g>
	<path class="st0" d="M64.8,60.6h-8.2l-3.7-7.3L44,35.8l-8.9,17.5l-3.7,7.3h-8.3l3.7-7.3l17.1-33.6L61,53.3L64.8,60.6z"/>
	<path class="st0" d="M109.2,19.8v40.9h-7.3v-26l-7.2,5.5l-6,4.6l-6-4.6l-7.2-5.5v26h-7.3V19.8l7.3,5.6l13.1,10.1l13.1-10.1
		L109.2,19.8z"/>
	<path class="st0" d="M154.4,60.6h-8.2l-3.7-7.3l-8.9-17.5l-8.9,17.5l-3.7,7.3h-8.2l3.7-7.3l17.1-33.6l17.1,33.6L154.4,60.6z"/>
	<path class="st0" d="M199,53.3v7.3h-31.6l-0.1,0.1h-9.2l0.1-0.1l5.6-7.3l10-13l4.6-6l5.6-7.2h-26v-7.3h31.6h9.2l-5.7,7.3
		l-10.2,13.2l-4.6,6l-5.5,7.1L199,53.3L199,53.3z"/>
	<path class="st0" d="M239.6,40.2c0,11.3-9.2,20.4-20.4,20.4s-20.4-9.2-20.4-20.4c0-11.3,9.2-20.4,20.4-20.4S239.6,28.9,239.6,40.2z
		 M232.3,40.2c0-7.2-5.9-13.1-13.1-13.1s-13.1,5.9-13.1,13.1s5.9,13.1,13.1,13.1S232.3,47.4,232.3,40.2z"/>
	<path class="st0" d="M283.4,40.2c0,11.3-9.2,20.4-20.4,20.4c-11.3,0-20.4-9.2-20.4-20.4c0-11.3,9.2-20.4,20.4-20.4
		C274.2,19.8,283.4,28.9,283.4,40.2z M276.1,40.2c0-7.2-5.9-13.1-13.1-13.1s-13.1,5.9-13.1,13.1s5.9,13.1,13.1,13.1
		S276.1,47.4,276.1,40.2z"/>
	<path class="st0" d="M328.6,19.8v40.9l-7.3-5.6l-26.2-20.3v25.9h-7.3V19.9l7.3,5.6l26.3,20.3v-26H328.6z"/>
</g>
<path class="st1" d="M92.3,73.5c0,0,68.2,64,154.8,11.2c0,0,3.5-1.5,3.4-4.4S240,82.5,240,82.5s-76.5,29.2-144.5-11
	C95.6,71.5,86.9,67.6,92.3,73.5z"/>
<path class="st1" d="M236.6,73.8c2.4-1.3,17.5-3.6,20.7,0.8c0,0,4.8,2.3-4.1,20.7c0,0-1.7,4.9,2.6,1.2s11.6-13.9,10.5-25.7
	c0,0,0.6-5.5-17.9-4c0,0-10,0.9-14.9,6.4C233.5,73.2,233.4,75.6,236.6,73.8z"/>
</svg>
