<?xml version="1.0" encoding="utf-8"?>
<!-- Generator: Adobe Illustrator 21.1.0, SVG Export Plug-In . SVG Version: 6.00 Build 0)  -->
<svg version="1.1" id="Layer_1" xmlns="http://www.w3.org/2000/svg" xmlns:xlink="http://www.w3.org/1999/xlink" x="0px" y="0px"
	 viewBox="0 0 332.5 67.5" style="enable-background:new 0 0 332.5 67.5;" xml:space="preserve">
<style type="text/css">
	.st0{fill:#FFA500;}
	.st1{fill:#6B6B6B;}
	.st2{fill:#FFA500;stroke:#FFA500;stroke-miterlimit:10;}
</style>
<polygon class="st0" points="16.8,20.2 22.3,5.6 27.2,20.2 42.8,20.2 29.8,29.7 34.8,44.8 22.3,35.8 9.5,44.8 14.2,29.9 1,20.2 "/>
<polygon class="st0" points="63,20.2 68.5,5.6 73.4,20.2 89,20.2 76,29.7 81,44.8 68.5,35.8 55.7,44.8 60.5,29.9 47.2,20.2 "/>
<polygon class="st0" points="109.3,20.2 114.7,5.6 119.7,20.2 135.3,20.2 122.3,29.7 127.2,44.8 114.7,35.8 101.9,44.8 106.7,29.9 
	93.4,20.2 "/>
<polygon class="st0" points="155.5,20.2 160.9,5.6 165.9,20.2 181.5,20.2 168.5,29.7 173.4,44.8 160.9,35.8 148.2,44.8 152.9,29.9 
	139.7,20.2 "/>
<polygon class="st1" points="201.7,20.2 207.1,5.6 212.1,20.2 227.7,20.2 214.7,29.7 219.7,44.8 207.1,35.8 194.4,44.8 199.1,29.9 
	185.9,20.2 "/>
<polygon class="st2" points="207.1,35.8 207.1,5.6 201.7,20.2 185.9,20.2 199.1,29.9 194.4,44.8 "/>
</svg>
