<?xml version="1.0" encoding="utf-8"?>
<!-- Generator: Adobe Illustrator 21.1.0, SVG Export Plug-In . SVG Version: 6.00 Build 0)  -->
<svg version="1.1" id="Layer_1" xmlns="http://www.w3.org/2000/svg" xmlns:xlink="http://www.w3.org/1999/xlink" x="0px" y="0px"
	 viewBox="0 0 360 288" style="enable-background:new 0 0 360 288;" xml:space="preserve">
<style type="text/css">
	.st0{fill:#FFFFFF;}
</style>
<g>
	<path class="st0" d="M57.7,125.5h-8.2l-3.7-7.3l-8.9-17.5l-8.9,17.5l-3.7,7.3H16l3.7-7.3l17.1-33.6l17.1,33.6L57.7,125.5z"/>
	<path class="st0" d="M102.1,84.7v40.9h-7.3v-26l-7.2,5.5l-6,4.6l-6-4.6l-7.2-5.5v26h-7.3V84.7l7.3,5.6l13.1,10.1l13.1-10.1
		L102.1,84.7z"/>
	<path class="st0" d="M147.3,125.5h-8.2l-3.7-7.3l-8.9-17.5l-8.9,17.5l-3.7,7.3h-8.2l3.7-7.3l17.1-33.6l17.1,33.6L147.3,125.5z"/>
	<path class="st0" d="M191.9,118.2v7.3h-31.6l-0.1,0.1H151l0.1-0.1l5.6-7.3l10-13l4.6-6l5.6-7.2h-26v-7.3h31.6h9.2L186,92
		l-10.2,13.2l-4.6,6l-5.5,7.1H191.9z"/>
	<path class="st0" d="M232.5,105.1c0,11.3-9.2,20.4-20.4,20.4s-20.4-9.2-20.4-20.4c0-11.3,9.2-20.4,20.4-20.4
		S232.5,93.8,232.5,105.1z M225.2,105.1c0-7.2-5.9-13.1-13.1-13.1s-13.1,5.9-13.1,13.1s5.9,13.1,13.1,13.1S225.2,112.3,225.2,105.1z
		"/>
	<path class="st0" d="M276.3,105.1c0,11.3-9.2,20.4-20.4,20.4c-11.3,0-20.4-9.2-20.4-20.4c0-11.3,9.2-20.4,20.4-20.4
		C267.1,84.7,276.3,93.8,276.3,105.1z M269,105.1c0-7.2-5.9-13.1-13.1-13.1s-13.1,5.9-13.1,13.1s5.9,13.1,13.1,13.1
		S269,112.3,269,105.1z"/>
	<path class="st0" d="M321.5,84.7v40.9l-7.3-5.6L288,99.7v25.9h-7.3V84.8l7.3,5.6l26.3,20.3v-26L321.5,84.7z"/>
</g>
<path class="st0" d="M85.2,138.4c0,0,68.2,64,154.8,11.2c0,0,3.5-1.5,3.4-4.4c-0.1-2.9-10.5,2.2-10.5,2.2s-76.5,29.2-144.5-11
	C88.5,136.4,79.8,132.5,85.2,138.4z"/>
<path class="st0" d="M229.5,138.7c2.4-1.3,17.5-3.6,20.7,0.8c0,0,4.8,2.3-4.1,20.7c0,0-1.7,4.9,2.6,1.2c4.3-3.7,11.6-13.9,10.5-25.7
	c0,0,0.6-5.5-17.9-4c0,0-10,0.9-14.9,6.4C226.4,138.1,226.3,140.5,229.5,138.7z"/>
</svg>
